<?xml version="1.0" encoding="UTF-8" standalone="no"?>
<svg
   sodipodi:docname="logo-large.svg"
   inkscape:version="1.2.1 (9c6d41e, 2022-07-14)"
   id="svg1475"
   version="1.1"
   viewBox="0 0 256 84"
   height="84mm"
   width="256mm"
   inkscape:export-filename="../../../../../Downloads/yyy.png"
   inkscape:export-xdpi="203.2"
   inkscape:export-ydpi="203.2"
   xmlns:inkscape="http://www.inkscape.org/namespaces/inkscape"
   xmlns:sodipodi="http://sodipodi.sourceforge.net/DTD/sodipodi-0.dtd"
   xmlns="http://www.w3.org/2000/svg"
   xmlns:svg="http://www.w3.org/2000/svg"
   xmlns:rdf="http://www.w3.org/1999/02/22-rdf-syntax-ns#"
   xmlns:cc="http://creativecommons.org/ns#"
   xmlns:dc="http://purl.org/dc/elements/1.1/">
  <defs
     id="defs1469">
    <rect
       x="12.656045"
       y="36.16013"
       width="578.56207"
       height="343.52124"
       id="rect24427" />
    <rect
       x="30.736111"
       y="37.968136"
       width="506.24182"
       height="175.37663"
       id="rect24421" />
    <rect
       x="391.35953"
       y="14.615086"
       width="678.78955"
       height="457.93936"
       id="rect49774" />
    <rect
       x="67.598274"
       y="51.099167"
       width="306.16714"
       height="53.715561"
       id="rect2754" />
    <rect
       id="rect3953"
       height="52.462029"
       width="94.885414"
       y="13.447483"
       x="65.976715" />
    <rect
       id="rect3953-2"
       height="65.527328"
       width="220.95096"
       y="13.447483"
       x="65.976715" />
    <rect
       id="rect3953-0"
       height="93.880669"
       width="156.53288"
       y="13.447483"
       x="65.976715" />
    <rect
       id="rect3953-0-0"
       height="58.270321"
       width="267.63519"
       y="13.447483"
       x="65.976715" />
    <rect
       x="391.35953"
       y="14.615086"
       width="678.78955"
       height="457.93936"
       id="rect49774-6" />
    <rect
       x="391.35953"
       y="14.615086"
       width="678.78955"
       height="457.93936"
       id="rect49774-6-2" />
    <rect
       x="391.35953"
       y="14.615086"
       width="678.78955"
       height="457.93936"
       id="rect49774-3" />
    <rect
       x="12.656045"
       y="36.16013"
       width="1021.4788"
       height="222.24641"
       id="rect24427-9" />
  </defs>
  <sodipodi:namedview
     inkscape:window-maximized="1"
     inkscape:window-y="25"
     inkscape:window-x="0"
     inkscape:window-height="802"
     inkscape:window-width="1440"
     showgrid="false"
     inkscape:document-rotation="0"
     inkscape:current-layer="layer1"
     inkscape:document-units="mm"
     inkscape:cy="153.16105"
     inkscape:cx="690.73053"
     inkscape:zoom="2.3243507"
     inkscape:pageshadow="2"
     inkscape:pageopacity="0.0"
     borderopacity="1.0"
     bordercolor="#666666"
     pagecolor="#ffffff"
     id="base"
     inkscape:showpageshadow="2"
     inkscape:pagecheckerboard="0"
     inkscape:deskcolor="#d1d1d1" />
  <metadata
     id="metadata1472">
    <rdf:RDF>
      <cc:Work
         rdf:about="">
        <dc:format>image/svg+xml</dc:format>
        <dc:type
           rdf:resource="http://purl.org/dc/dcmitype/StillImage" />
      </cc:Work>
    </rdf:RDF>
  </metadata>
  <g
     id="layer1"
     inkscape:groupmode="layer"
     inkscape:label="Layer 1">
    <path
       sodipodi:nodetypes="azzzzzzzszsssczssaa"
       id="path10-9-0-7"
       d="m 178.40152,57.695109 c -5.21818,-3.760483 -4.17643,-13.45294 -4.1321,-18.848377 0.0444,-5.395432 -0.24272,-7.958098 1.8256,-9.490151 2.06832,-1.532057 5.07654,-1.764599 6.79762,-0.290709 1.72109,1.473882 -0.0136,5.320069 1.64621,6.537867 1.6598,1.217798 3.72804,1.24318 5.42697,0.04709 1.6989,-1.196097 0.29972,-5.495816 1.82049,-6.589677 1.52078,-1.093857 4.88674,-1.399196 6.80086,-0.127873 1.91412,1.271324 0.99933,4.865166 2.41368,6.90901 1.08178,1.56325 7.52018,1.161019 8.53597,-0.529009 1.0158,-1.69003 -5.6e-4,-8.206966 -1.26121,-10.765765 -1.91228,-3.881509 -6.54537,-6.889933 -11.95153,-4.964749 -6.24881,2.225268 -9.72834,1.974467 -17.46571,-0.155411 -4.27919,-1.177941 -13.77598,1.779093 -14.15492,10.226782 -0.26423,11.855976 -2.6795,26.808693 6.45177,34.515402 9.13126,7.706709 40.29202,6.995716 40.0465,-9.001345 -0.24554,-15.997061 -29.34669,-12.025271 -28.84709,-7.332701 0.4996,4.69257 19.10963,1.014764 18.17743,7.503178 -1.055,7.343148 -16.11199,6.693708 -22.13054,2.356438 z"
       style="mix-blend-mode:normal;fill:#800080;fill-opacity:1;stroke:#800080;stroke-width:0.166194px;stroke-linecap:butt;stroke-linejoin:miter;stroke-opacity:1" />
    <text
       xml:space="preserve"
       transform="matrix(0.26458333,0,0,0.26458333,-2.6458332,7.4083337)"
       id="text24425"
       style="font-size:85.3333px;font-family:Arial;-inkscape-font-specification:Arial;text-align:end;white-space:pre;shape-inside:url(#rect24427);display:inline;fill:#800080;fill-opacity:1;stroke:#800080;stroke-opacity:1"><tspan
         x="97.843956"
         y="113.0245"
         id="tspan1009">mathe buddy
</tspan></text>
    <text
       xml:space="preserve"
       transform="matrix(0.12197097,0,0,0.12197097,25.166976,40.541911)"
       id="text24425-4"
       style="font-size:71.3927px;font-family:Arial;-inkscape-font-specification:Arial;text-align:end;white-space:pre;shape-inside:url(#rect24427-9);display:inline;fill:#1a1a1a;fill-opacity:1;stroke:#1a1a1a;stroke-opacity:1"><tspan
         x="371.38183"
         y="100.46745"
         id="tspan1011">eine gamifizierte App
</tspan><tspan
         x="204.75238"
         y="189.70832"
         id="tspan1013">für die höhere Mathematik</tspan></text>
  </g>
</svg>
