<?xml version="1.0" encoding="UTF-8" standalone="no"?>
<!-- Created with Inkscape (http://www.inkscape.org/) -->

<svg
   width="480"
   height="480"
   viewBox="0 0 127 127"
   version="1.1"
   id="svg28742"
   inkscape:version="1.2.1 (9c6d41e, 2022-07-14)"
   sodipodi:docname="logo-2.svg"
   inkscape:export-filename="logo.png"
   inkscape:export-xdpi="204.8"
   inkscape:export-ydpi="204.8"
   xmlns:inkscape="http://www.inkscape.org/namespaces/inkscape"
   xmlns:sodipodi="http://sodipodi.sourceforge.net/DTD/sodipodi-0.dtd"
   xmlns="http://www.w3.org/2000/svg"
   xmlns:svg="http://www.w3.org/2000/svg">
  <sodipodi:namedview
     id="namedview28744"
     pagecolor="#ffffff"
     bordercolor="#000000"
     borderopacity="0.25"
     inkscape:showpageshadow="2"
     inkscape:pageopacity="0.0"
     inkscape:pagecheckerboard="0"
     inkscape:deskcolor="#d1d1d1"
     inkscape:document-units="mm"
     showgrid="false"
     inkscape:zoom="0.50634225"
     inkscape:cx="231.06901"
     inkscape:cy="217.24436"
     inkscape:window-width="1311"
     inkscape:window-height="646"
     inkscape:window-x="0"
     inkscape:window-y="25"
     inkscape:window-maximized="0"
     inkscape:current-layer="layer1" />
  <defs
     id="defs28739" />
  <g
     inkscape:label="Layer 1"
     inkscape:groupmode="layer"
     id="layer1">
    <path
       sodipodi:nodetypes="asczsszsszszsssssa"
       id="path10-9-0-7-6"
       d="M 41.011436,99.270591 C 31.095321,92.741767 33.092507,77.94449 32.821267,64.607738 32.55005,51.270986 32.360954,32.052582 38.097799,28.414668 c 11.789687,-6.179233 16.522941,5.014307 25.512381,5.175614 8.989464,0.161296 17.587633,-10.609983 27.036268,-4.946311 4.434442,2.658084 2.281094,11.6841 5.509496,16.111056 2.469271,3.385994 17.165606,2.514763 19.484266,-1.145831 2.31867,-3.660596 -9.7e-4,-20.068595 -2.87885,-25.610944 C 108.39637,9.5909173 96.61297,1.8669008 84.272815,6.0368546 77.141039,8.446817 69.919108,14.039086 63.942885,13.929102 57.96664,13.819114 53.250504,7.9567001 44.405449,5.7002355 29.773494,1.9674791 21.528937,6.6703286 17.320428,15.544026 13.111944,24.417727 11.616199,52.532221 12.459406,71.103741 13.158116,86.492551 11.616404,103.77373 26.710771,113.66723 52.274986,130.42311 115.10609,126.71517 114.893,88.518019 114.6869,51.571878 41.829492,55.811237 45.277962,71.140353 48.730381,86.487006 91.732367,67.672403 93.292748,90.067355 94.399117,105.9458 55.790719,109.00136 41.011436,99.270591 Z"
       style="mix-blend-mode:normal;fill:#aa0000;fill-opacity:1;stroke:#aa0000;stroke-width:0.369537px;stroke-linecap:butt;stroke-linejoin:miter;stroke-opacity:1" />
  </g>
</svg>
